<!-- <svg width="324" height="144" viewBox="0 0 324 144" fill="none" xmlns="http://www.w3.org/2000/svg">
<path d="M108.022 48.2563H120.291L139.813 73.1806V48.2563H152.829V95.4064H141.307L121.046 69.5464V95.4064H108.022V48.2563Z" fill="#282734"/>
<path d="M159.878 48.2563H198.042V59.3702H172.894V66.5103H195.676V76.8168H172.894V84.2945H198.38V95.4064H159.878V48.2563Z" fill="#282734"/>
<path d="M260.51 48.2563H274.919V95.436H260.51V48.2563Z" fill="#282734"/>
<path d="M274.919 48.2563H260.51V62.5761H274.919V48.2563Z" fill="#F23DE9"/>
<path d="M75.5341 98.3497C90.2745 98.3497 102.224 86.4748 102.224 71.8265C102.224 57.1781 90.2745 45.3032 75.5341 45.3032C60.7937 45.3032 48.8442 57.1781 48.8442 71.8265C48.8442 86.4748 60.7937 98.3497 75.5341 98.3497Z" fill="#282734"/>
<path d="M75.5341 84.6936C82.6848 84.6936 88.4817 78.9329 88.4817 71.8268C88.4817 64.7206 82.6848 58.96 75.5341 58.96C68.3833 58.96 62.5864 64.7206 62.5864 71.8268C62.5864 78.9329 68.3833 84.6936 75.5341 84.6936Z" fill="#4D4DFF"/>
<path d="M240.659 95.5522H256.03L229.475 48.6924L221.79 62.2541L240.659 95.5522Z" fill="#282734"/>
<path d="M217.849 70.2334L203.642 95.5525H232.117L217.849 70.2334Z" fill="#0DFFFF"/>
</svg> -->
<svg width="300" height="144" viewBox="0 0 324 144" fill="none" xmlns="http://www.w3.org/2000/svg">
  <path d="M91.022 48.2563H103.291L122.813 73.1806V48.2563H135.829V95.4064H124.307L104.046 69.5464V95.4064H91.022V48.2563Z" fill="#282734"/>
  <path d="M142.878 48.2563H181.042V59.3702H155.894V66.5103H178.676V76.8168H155.894V84.2945H181.38V95.4064H142.878V48.2563Z" fill="#282734"/>
  <path d="M243.51 48.2563H257.919V95.436H243.51V48.2563Z" fill="#282734"/>
  <path d="M257.919 48.2563H243.51V62.5761H257.919V48.2563Z" fill="#F23DE9"/>
  <path d="M58.5341 98.3497C73.2745 98.3497 85.224 86.4748 85.224 71.8265C85.224 57.1781 73.2745 45.3032 58.5341 45.3032C43.7937 45.3032 31.8442 57.1781 31.8442 71.8265C31.8442 86.4748 43.7937 98.3497 58.5341 98.3497Z" fill="#282734"/>
  <path d="M58.5341 84.6936C65.6848 84.6936 71.4817 78.9329 71.4817 71.8268C71.4817 64.7206 65.6848 58.96 58.5341 58.96C51.3833 58.96 45.5864 64.7206 45.5864 71.8268C45.5864 78.9329 51.3833 84.6936 58.5341 84.6936Z" fill="#4D4DFF"/>
  <path d="M223.659 95.5522H239.03L212.475 48.6924L204.79 62.2541L223.659 95.5522Z" fill="#282734"/>
  <path d="M200.849 70.2334L186.642 95.5525H215.117L200.849 70.2334Z" fill="#0DFFFF"/>
</svg>